<svg width="125" height="125" viewBox="0 0 125 125" fill="none" xmlns="http://www.w3.org/2000/svg">
<rect x="11" y="11" width="103" height="103" stroke="black" stroke-width="22"/>
<path fill-rule="evenodd" clip-rule="evenodd" d="M63 122C96.1371 122 123 95.1371 123 62C123 28.8629 96.1371 2 63 2C29.8629 2 3 28.8629 3 62C3 95.1371 29.8629 122 63 122ZM100.712 35.9597C101.692 38.4779 102.375 41.3841 102.562 45.6113C102.748 49.8544 102.764 51.2064 102.764 62.0079C102.764 72.8094 102.717 74.1614 102.531 78.4044C102.344 82.6317 101.66 85.5227 100.682 88.0561C98.6143 93.4022 94.3871 97.6295 89.0403 99.6967C86.5227 100.676 83.6165 101.359 79.3893 101.546C75.1462 101.733 73.7942 101.779 62.9927 101.779C52.1912 101.779 50.8386 101.733 46.5962 101.546C42.3683 101.359 39.4779 100.676 36.9445 99.6967C34.3024 98.7022 31.8934 97.1323 29.9039 95.1118C27.8835 93.1224 26.3142 90.7292 25.304 88.0561C24.3247 85.5379 23.6405 82.6317 23.4541 78.4044C23.2677 74.1614 23.221 72.8094 23.221 62.0079C23.221 51.2064 23.2677 49.8544 23.4699 45.5956C23.6563 41.3683 24.3399 38.4779 25.3191 35.9445C26.3142 33.3024 27.8835 30.8934 29.9039 28.904C31.8934 26.8677 34.2866 25.3136 36.9603 24.3033C39.4779 23.3247 42.3841 22.6405 46.6113 22.4541C50.8544 22.2677 52.2064 22.221 63.0079 22.221C73.8094 22.221 75.1614 22.2677 79.4202 22.4699C83.6475 22.6563 86.5385 23.3399 89.0713 24.3191C91.7134 25.3136 94.1224 26.8835 96.1118 28.904C98.148 30.8934 99.7022 33.2866 100.712 35.9597ZM94.0295 85.476C94.5734 84.0772 95.2261 81.979 95.3973 78.0936C95.5837 73.8973 95.6304 72.654 95.6304 62.0389C95.6304 51.4237 95.5837 50.1652 95.3973 45.9689C95.2261 42.0987 94.5734 39.9853 94.0295 38.5866C93.392 36.8612 92.3818 35.307 91.0608 34.0169C89.7865 32.6959 88.2165 31.6857 86.4917 31.0488C85.093 30.5049 82.9948 29.8522 79.1094 29.681C74.9283 29.4947 73.6698 29.4479 63.0389 29.4479C52.4243 29.4479 51.1652 29.4947 46.9689 29.681C43.0993 29.8522 40.9853 30.5049 39.5866 31.0488C37.8612 31.6857 36.307 32.6959 35.0176 34.0169C33.6807 35.2919 32.6705 36.8612 32.033 38.5866C31.4891 39.9853 30.8365 42.0835 30.6659 45.9689C30.4789 50.1494 30.4327 51.4237 30.4327 62.0389C30.4327 72.654 30.4789 73.9131 30.6659 78.1094C30.8365 81.979 31.4891 84.093 32.033 85.4917C32.6705 87.2165 33.6807 88.7707 35.0018 90.0608C36.2761 91.3818 37.846 92.392 39.5708 93.0295C40.9696 93.5734 43.0677 94.2261 46.9531 94.3967C51.1342 94.5837 52.4085 94.6298 63.0237 94.6298C73.6388 94.6298 74.8973 94.5837 79.0936 94.3967C82.9639 94.2261 85.0772 93.5734 86.4759 93.0295C89.9419 91.6926 92.6926 88.9419 94.0295 85.476ZM63.0079 41.5703C51.7249 41.5703 42.5705 50.7242 42.5705 62.0077C42.5705 73.2913 51.7249 82.4452 63.0079 82.4452C74.2914 82.4452 83.4453 73.2913 83.4453 62.0077C83.4453 50.7242 74.2914 41.5703 63.0079 41.5703ZM63.0079 75.265C55.6881 75.265 49.7506 69.3281 49.7506 62.0077C49.7506 54.6873 55.6881 48.7505 63.0079 48.7505C70.3283 48.7505 76.2651 54.6873 76.2651 62.0077C76.2651 69.3281 70.3283 75.265 63.0079 75.265ZM84.2534 45.5335C86.8888 45.5335 89.0252 43.3971 89.0252 40.7623C89.0252 38.1269 86.8888 35.9911 84.2534 35.9911C81.6185 35.9911 79.4822 38.1269 79.4822 40.7623C79.4822 43.3971 81.6185 45.5335 84.2534 45.5335Z" fill="#07B867"/>
</svg>
