<svg width="125" height="125" viewBox="0 0 125 125" fill="none" xmlns="http://www.w3.org/2000/svg">
<mask id="path-1-inside-1_1_88" fill="white">
<path d="M0 0H125V125H0V0Z"/>
</mask>
<path d="M0 0V-25H-18V0H0ZM125 0H143V-25H125V0ZM125 125V131H143V125H125ZM0 125H-18V131H0V125ZM0 25H125V-25H0V25ZM107 0V125H143V0H107ZM125 119H0V131H125V119ZM18 125V0H-18V125H18Z" fill="black" mask="url(#path-1-inside-1_1_88)"/>
<path d="M9.5765 121.748L11.3226 86.0011L45.2301 118.633L9.5765 121.748Z" fill="black"/>
<path d="M114.981 120.032L79.1929 120.334L109.831 84.6154L114.981 120.032Z" fill="black"/>
<path d="M63 2C29.87 2 3 28.865 3 62C3 88.51 20.19 111 44.035 118.935C47.03 119.49 48 117.63 48 116.05V104.88C31.31 108.51 27.835 97.8 27.835 97.8C25.105 90.865 21.17 89.02 21.17 89.02C15.725 85.295 21.585 85.375 21.585 85.375C27.61 85.795 30.78 91.56 30.78 91.56C36.13 100.73 44.815 98.08 48.24 96.545C48.775 92.67 50.33 90.02 52.05 88.525C38.725 87 24.715 81.855 24.715 58.87C24.715 52.315 27.06 46.965 30.895 42.765C30.275 41.25 28.22 35.145 31.48 26.885C31.48 26.885 36.52 25.275 47.985 33.035C52.77 31.705 57.9 31.04 63 31.015C68.1 31.04 73.235 31.705 78.03 33.035C89.485 25.275 94.515 26.885 94.515 26.885C97.78 35.15 95.725 41.255 95.105 42.765C98.955 46.965 101.28 52.32 101.28 58.87C101.28 81.915 87.245 86.99 73.885 88.475C76.035 90.335 78 93.985 78 99.585V116.05C78 117.645 78.96 119.52 82.005 118.93C105.83 110.985 123 88.5 123 62C123 28.865 96.135 2 63 2Z" fill="#05B788"/>
</svg>
