<svg width="125" height="125" viewBox="0 0 125 125" fill="none" xmlns="http://www.w3.org/2000/svg">
<rect x="11" y="11" width="103" height="103" stroke="black" stroke-width="22"/>
<path fill-rule="evenodd" clip-rule="evenodd" d="M63 122C96.1371 122 123 95.1371 123 62C123 28.8629 96.1371 2 63 2C29.8629 2 3 28.8629 3 62C3 95.1371 29.8629 122 63 122ZM26.4573 87.2693L26.4474 87.2602C24.9446 85.9065 24 83.9454 24 81.7634V42.3966C24 38.3112 27.3114 35 31.3962 35H95.2053C99.2906 35 102.602 38.3113 102.602 42.3966V81.7634C102.602 83.9449 101.658 85.9057 100.155 87.2596L100.145 87.2693L100.127 87.2848C98.8194 88.451 97.0951 89.1596 95.2053 89.1596H31.3962C29.5057 89.1596 27.7809 88.4504 26.4736 87.2837L26.4573 87.2693ZM33.2908 83.938L52.7212 64.5073L61.5444 72.5285C62.5403 73.4338 64.0611 73.4338 65.0569 72.5285L73.8803 64.5074L93.3109 83.938H33.2908ZM97.3803 80.623L77.7483 60.991L97.3803 43.1437V80.623ZM48.8532 60.9909L29.2215 80.623V43.1437L48.8532 60.9909ZM33.7694 40.2215H92.8324L63.3007 67.0684L33.7694 40.2215Z" fill="#08B853"/>
</svg>
