<svg width="125" height="125" viewBox="0 0 125 125" fill="none" xmlns="http://www.w3.org/2000/svg">
<rect x="12.5" y="12.5" width="100" height="100" stroke="black" stroke-width="25"/>
<path fill-rule="evenodd" clip-rule="evenodd" d="M2 62C2 28.862 28.862 2 62 2C95.138 2 122 28.862 122 62C122 95.138 95.138 122 62 122C28.862 122 2 95.138 2 62ZM44 47H32V92H44V47ZM37.898 41H37.964C41.684 41 44 38.33 44 34.997C43.931 31.592 41.684 29 38.033 29C34.388 29 32 31.592 32 34.997C32 38.33 34.316 41 37.898 41ZM78.5 47C87.614 47 95 54.386 95 63.5V92H83V68C83 63.029 78.971 59 74 59C69.029 59 65 63.029 65 68V92H53V47H65V54.032C67.985 49.784 72.914 47 78.5 47Z" fill="#01B7AB"/>
</svg>
